# xmcd
#
# Track frame offsets: 
#        150
#        14209
#        37595
#        55970
#        75702
#        94267
#        112972
#        139520
#        151902
#        168285
#        181670
#
# Disc length: 2764 seconds
#
# Revision: 3
# Processed by: cddbd v1.5.2PL0 Copyright (c) Steve Scherf et al.
# Submitted via: ExactAudioCopyFreeDBPlugin 1.0
#
DISCID=7c0aca0b
DTITLE=Bill Perry - Fire It Up
DYEAR=2001
DGENRE=Blues
TTITLE0=Itchin' For It
TTITLE1=Clean Thing
TTITLE2=Fire It Up
TTITLE3=Pressure
TTITLE4=I Can't See the Light of Day
TTITLE5=Born In New York
TTITLE6=Thinkin' Of You
TTITLE7=G and L Jump
TTITLE8=I Ain't Lyin'
TTITLE9=Heaven in a Pontiac
TTITLE10=Cheatin' Blues
EXTD=
EXTT0=
EXTT1=
EXTT2=
EXTT3=
EXTT4=
EXTT5=
EXTT6=
EXTT7=
EXTT8=
EXTT9=
EXTT10=
PLAYORDER=
